# xmcd
#
# Track frame offsets: 
#        150
#        16837
#        37960
#        58367
#        80892
#        100292
#        116325
#        131924
#        154759
#        172943
#
# Disc length: 2558 seconds
#
# Revision: 0
# Processed by: cddbd v1.5.2PL0 Copyright (c) Steve Scherf et al.
# Submitted via: ExactAudioCopy v0.95b4
#
DISCID=7f09fc0a
DTITLE=Freddie Jackson - Personal Reflections
DYEAR=1900
DGENRE=Blues
TTITLE0=I Go Crazy
TTITLE1=I Don't Know Why
TTITLE2=Love Ballad
TTITLE3=Back Together Again
TTITLE4=I Wanna Get Next to You
TTITLE5=Save the Best For Last
TTITLE6=I'll Be Around
TTITLE7=I Wanna Know Your Name
TTITLE8=Do That to Me One More Time
TTITLE9=One In a Million
EXTD=
EXTT0=
EXTT1=
EXTT2=
EXTT3=
EXTT4=
EXTT5=
EXTT6=
EXTT7=
EXTT8=
EXTT9=
PLAYORDER=
